<svg xmlns="http://www.w3.org/2000/svg" viewBox="0 0 199.8 216"><defs><style>.\38 a371c67-3e21-4df6-8a74-5924d87c04d8{fill:#fff;}</style></defs><title>Asset 1</title><g id="226492e9-8dc9-4278-a22a-cc332a1fd605" data-name="Layer 2"><g id="41021577-f380-42bc-a7aa-508293883225" data-name="Layer 6"><path class="8a371c67-3e21-4df6-8a74-5924d87c04d8" d="M66,216H10.7A10.67,10.67,0,0,1,0,205.3V150a5.37,5.37,0,0,1,5.35-5.35H23.19A5.37,5.37,0,0,1,28.54,150v37.47H66a5.37,5.37,0,0,1,5.35,5.35v17.84A5.37,5.37,0,0,1,66,216ZM5.35,87.56H23.19a5.37,5.37,0,0,0,5.35-5.35V44.74H66a5.37,5.37,0,0,0,5.35-5.35V21.55A5.37,5.37,0,0,0,66,16.2H10.7A10.67,10.67,0,0,0,0,26.9V82.21A5.37,5.37,0,0,0,5.35,87.56Zm123.09-66V39.39a5.37,5.37,0,0,0,5.35,5.35h37.47V82.21a5.37,5.37,0,0,0,5.35,5.35h17.84a5.37,5.37,0,0,0,5.35-5.35V26.9a10.67,10.67,0,0,0-10.7-10.7H133.79A5.37,5.37,0,0,0,128.44,21.55Zm66,123.09H176.61a5.37,5.37,0,0,0-5.35,5.35v37.47H133.79a5.37,5.37,0,0,0-5.35,5.35v17.84a5.37,5.37,0,0,0,5.35,5.35H189.1a10.67,10.67,0,0,0,10.7-10.7V150A5.37,5.37,0,0,0,194.45,144.64Z"/><path class="8a371c67-3e21-4df6-8a74-5924d87c04d8" d="M112.18,73.63l-26.52.27a4.88,4.88,0,0,0-4.83,4.82L79.8,183a4.66,4.66,0,0,0,4.73,4.73l26.52-.27a4.92,4.92,0,0,0,4.83-4.82l1-104.28A4.66,4.66,0,0,0,112.18,73.63Zm-6.75,36.58-13.75.13L91.93,85l13.75-.14Z"/><path class="8a371c67-3e21-4df6-8a74-5924d87c04d8" d="M96.65,1.13l-4.18,8.5L83.12,11A2.05,2.05,0,0,0,82,14.48l6.78,6.61-1.61,9.32a2.06,2.06,0,0,0,3,2.18l8.35-4.43,8.36,4.39a2,2,0,0,0,3-2.18l-1.61-9.32,6.79-6.6a2.06,2.06,0,0,0-1.15-3.5l-9.35-1.36-4.18-8.5a2,2,0,0,0-3.64,0Z"/><path class="8a371c67-3e21-4df6-8a74-5924d87c04d8" d="M123.09,38.72l-4.24,8.58-9.5,1.41a2.07,2.07,0,0,0-1.14,3.53l6.84,6.68-1.62,9.44a2.08,2.08,0,0,0,3,2.17l8.47-4.45,8.47,4.45a2.09,2.09,0,0,0,3-2.17l-1.63-9.44,6.84-6.68a2.06,2.06,0,0,0-1.14-3.53L131,47.35l-4.24-8.58a2,2,0,0,0-3.69-.05Z"/><path class="8a371c67-3e21-4df6-8a74-5924d87c04d8" d="M72.8,38.72,68.56,47.3l-9.5,1.41a2.07,2.07,0,0,0-1.14,3.53l6.84,6.68-1.63,9.44a2.09,2.09,0,0,0,3,2.17l8.47-4.45,8.47,4.45a2.09,2.09,0,0,0,3-2.17l-1.63-9.44,6.85-6.68a2.07,2.07,0,0,0-1.14-3.53l-9.51-1.36-4.23-8.58a2,2,0,0,0-3.69-.05Z"/></g></g></svg>