<svg xmlns="http://www.w3.org/2000/svg" viewBox="0 0 323.86 216"><defs><style>.\38 1de7122-8d80-4d96-bdcd-ea0b04b5e2ef{fill:#fff;}</style></defs><title>Asset 4</title><g id="f251117e-f51f-4eb9-9b4e-67a4b402f791" data-name="Layer 2"><g id="b7d284d3-d000-481c-a815-213976ec8286" data-name="Layer 6"><path class="81de7122-8d80-4d96-bdcd-ea0b04b5e2ef" d="M201.39,117.67V114.6l2.71-.52V95.78l-2.71-.52V92.18H212v3.08l-2.73.52v18h7.19l.24-3.2h3.91v7.13Z"/><path class="81de7122-8d80-4d96-bdcd-ea0b04b5e2ef" d="M231.59,118a8.53,8.53,0,0,1-6.55-2.62,9.42,9.42,0,0,1-2.45-6.67V108a10.33,10.33,0,0,1,2.32-7,8.63,8.63,0,0,1,12.17-.41,8.87,8.87,0,0,1,2.12,6.25v2.79H227.89l0,.1a4.91,4.91,0,0,0,1.25,3.08,3.89,3.89,0,0,0,3,1.21,9.79,9.79,0,0,0,2.82-.34,13.44,13.44,0,0,0,2.45-1.08l1.38,3.15a9.94,9.94,0,0,1-3,1.56A12.87,12.87,0,0,1,231.59,118Zm-.46-15.72a2.66,2.66,0,0,0-2.24,1.09,5.53,5.53,0,0,0-1,2.85l.05.09h6.27v-.46a4.1,4.1,0,0,0-.77-2.6A2.75,2.75,0,0,0,231.13,102.31Z"/><path class="81de7122-8d80-4d96-bdcd-ea0b04b5e2ef" d="M241.34,114.6l2.45-.52V102.33l-2.71-.53V98.72h7.47l.23,2.72a6.88,6.88,0,0,1,2.33-2.26,6,6,0,0,1,3.09-.81,5.7,5.7,0,0,1,4.49,1.81q1.6,1.8,1.61,5.65v8.25l2.45.52v3.07H253V114.6l2.19-.52v-8.23a3.87,3.87,0,0,0-.77-2.71,3.12,3.12,0,0,0-2.33-.79,4,4,0,0,0-1.82.41,3.67,3.67,0,0,0-1.35,1.16v10.16l2.07.52v3.07h-9.63Z"/><path class="81de7122-8d80-4d96-bdcd-ea0b04b5e2ef" d="M271.92,94.09v4.63h3.33v3.59h-3.33V112a2.18,2.18,0,0,0,.46,1.57,1.6,1.6,0,0,0,1.22.48,8.09,8.09,0,0,0,.92-.05c.26,0,.56-.08.88-.15l.44,3.7a13.4,13.4,0,0,1-1.7.39,11.45,11.45,0,0,1-1.82.13,5.44,5.44,0,0,1-4.07-1.45,6.37,6.37,0,0,1-1.42-4.6v-9.67H264V98.72h2.79V94.09Z"/><path class="81de7122-8d80-4d96-bdcd-ea0b04b5e2ef" d="M286.82,118a8.53,8.53,0,0,1-6.55-2.62,9.42,9.42,0,0,1-2.45-6.67V108a10.33,10.33,0,0,1,2.32-7,8.63,8.63,0,0,1,12.17-.41,8.87,8.87,0,0,1,2.12,6.25v2.79H283.12l0,.1a4.91,4.91,0,0,0,1.25,3.08,3.89,3.89,0,0,0,3,1.21,9.79,9.79,0,0,0,2.82-.34,13.44,13.44,0,0,0,2.45-1.08l1.38,3.15a9.94,9.94,0,0,1-3,1.56A12.87,12.87,0,0,1,286.82,118Zm-.46-15.72a2.66,2.66,0,0,0-2.24,1.09,5.53,5.53,0,0,0-1,2.85l.05.09h6.27v-.46a4.1,4.1,0,0,0-.77-2.6A2.75,2.75,0,0,0,286.36,102.31Z"/><path class="81de7122-8d80-4d96-bdcd-ea0b04b5e2ef" d="M226,126.61h-.11l-6.83,18.87h-3.43l-6.79-18.8h-.11l.5,11.19v4l2.73.52v3.07H201.39V142.4l2.71-.52V123.59l-2.71-.53V120h9.38l6.5,18.78h.1L223.92,120h9.42v3.08l-2.73.53v18.29l2.73.52v3.07H222.78V142.4l2.72-.52v-4Z"/><path class="81de7122-8d80-4d96-bdcd-ea0b04b5e2ef" d="M247.34,145.47c-.14-.32-.26-.64-.37-1a9.24,9.24,0,0,1-.24-1,7.07,7.07,0,0,1-2.22,1.7,6.6,6.6,0,0,1-3,.64,6.24,6.24,0,0,1-4.42-1.51,5.34,5.34,0,0,1-1.64-4.12,4.68,4.68,0,0,1,2.14-4.12,11.22,11.22,0,0,1,6.27-1.45h2.6v-1.85a2.81,2.81,0,0,0-.78-2.12,3.27,3.27,0,0,0-2.33-.76,5.31,5.31,0,0,0-1.56.21,3.9,3.9,0,0,0-1.1.48l-.33,2h-3.86l0-4.2a14.8,14.8,0,0,1,3.21-1.6,11.73,11.73,0,0,1,3.95-.64,9,9,0,0,1,5.72,1.72,5.89,5.89,0,0,1,2.19,4.91v7.82c0,.3,0,.57,0,.83s0,.5.06.73l1.56.21v3.07Zm-4.43-3.42a4.34,4.34,0,0,0,2.1-.5,4,4,0,0,0,1.47-1.25v-2.89h-2.6a3.55,3.55,0,0,0-2.47.77,2.36,2.36,0,0,0-.84,1.83,1.86,1.86,0,0,0,.62,1.5A2.53,2.53,0,0,0,242.91,142.05Zm1.72-22.88H250l0,.11-4.83,4.55h-4.1Z"/><path class="81de7122-8d80-4d96-bdcd-ea0b04b5e2ef" d="M255.29,136.15a12.27,12.27,0,0,1,2-7.23,6.33,6.33,0,0,1,5.47-2.74,5.44,5.44,0,0,1,2.8.7,6.26,6.26,0,0,1,2.07,2l.37-2.38h4.44v18.38a7.83,7.83,0,0,1-2.35,6,9,9,0,0,1-6.47,2.24,12.54,12.54,0,0,1-3.05-.4,14.3,14.3,0,0,1-3-1.07l.94-3.59a17.26,17.26,0,0,0,2.45.83,10.87,10.87,0,0,0,2.59.31,3.42,3.42,0,0,0,2.81-1.14,4.94,4.94,0,0,0,.92-3.17v-1.24a5.53,5.53,0,0,1-4.58,2.18,6.44,6.44,0,0,1-5.44-2.56,10.86,10.86,0,0,1-2-6.75Zm5.11.37a7.7,7.7,0,0,0,.84,3.91,2.93,2.93,0,0,0,2.73,1.43,4.18,4.18,0,0,0,2-.43,3.19,3.19,0,0,0,1.3-1.25V132a3.53,3.53,0,0,0-1.3-1.33,3.86,3.86,0,0,0-1.95-.47,2.87,2.87,0,0,0-2.74,1.66,9.38,9.38,0,0,0-.87,4.34Z"/><path class="81de7122-8d80-4d96-bdcd-ea0b04b5e2ef" d="M275.3,142.4l2.47-.52V130.13l-2.73-.52v-3.08h7.84v15.35l2.45.52v3.07h-10ZM282.88,122h-5.11v-3.83h5.11Z"/><path class="81de7122-8d80-4d96-bdcd-ea0b04b5e2ef" d="M295.9,141.91a3,3,0,0,0,2.19-.79,2.82,2.82,0,0,0,.82-2.13h4.63l0,.1a5.91,5.91,0,0,1-2.16,4.81,9.12,9.12,0,0,1-12.06-.74,10.21,10.21,0,0,1-2.29-6.88v-.53a10.13,10.13,0,0,1,2.35-6.88,8.43,8.43,0,0,1,6.72-2.69,11.5,11.5,0,0,1,4.11.68,8.07,8.07,0,0,1,3,1.92l.07,5.06h-4.15l-.84-3a3.43,3.43,0,0,0-.94-.55,3.65,3.65,0,0,0-1.28-.22,3.22,3.22,0,0,0-3.06,1.58,8.11,8.11,0,0,0-.9,4.06v.53a8.8,8.8,0,0,0,.82,4.08A3,3,0,0,0,295.9,141.91Z"/><path class="81de7122-8d80-4d96-bdcd-ea0b04b5e2ef" d="M318,145.47c-.14-.32-.26-.64-.37-1a9.24,9.24,0,0,1-.24-1,7.07,7.07,0,0,1-2.22,1.7,6.63,6.63,0,0,1-3,.64,6.24,6.24,0,0,1-4.42-1.51,5.34,5.34,0,0,1-1.64-4.12,4.68,4.68,0,0,1,2.14-4.12,11.2,11.2,0,0,1,6.26-1.45h2.61v-1.85a2.78,2.78,0,0,0-.79-2.12,3.24,3.24,0,0,0-2.32-.76,5.26,5.26,0,0,0-1.56.21,3.78,3.78,0,0,0-1.1.48l-.34,2h-3.85l0-4.2a14.58,14.58,0,0,1,3.21-1.6,11.69,11.69,0,0,1,3.95-.64A9,9,0,0,1,320,127.9a5.87,5.87,0,0,1,2.2,4.91v7.82c0,.3,0,.57,0,.83s0,.5.06.73l1.56.21v3.07Zm-4.43-3.42a4.34,4.34,0,0,0,2.1-.5,4,4,0,0,0,1.47-1.25v-2.89h-2.61a3.54,3.54,0,0,0-2.46.77,2.36,2.36,0,0,0-.84,1.83,1.86,1.86,0,0,0,.62,1.5A2.53,2.53,0,0,0,313.53,142.05Z"/><path class="81de7122-8d80-4d96-bdcd-ea0b04b5e2ef" d="M66,216H10.7A10.67,10.67,0,0,1,0,205.3V150a5.37,5.37,0,0,1,5.35-5.35H23.19A5.37,5.37,0,0,1,28.54,150v37.47H66a5.37,5.37,0,0,1,5.35,5.35v17.84A5.37,5.37,0,0,1,66,216ZM5.35,87.56H23.19a5.37,5.37,0,0,0,5.35-5.35V44.74H66a5.37,5.37,0,0,0,5.35-5.35V21.55A5.37,5.37,0,0,0,66,16.2H10.7A10.67,10.67,0,0,0,0,26.9V82.21A5.37,5.37,0,0,0,5.35,87.56Zm123.09-66V39.39a5.37,5.37,0,0,0,5.35,5.35h37.47V82.21a5.37,5.37,0,0,0,5.35,5.35h17.84a5.37,5.37,0,0,0,5.35-5.35V26.9a10.67,10.67,0,0,0-10.7-10.7H133.79A5.37,5.37,0,0,0,128.44,21.55Zm66,123.09H176.61a5.37,5.37,0,0,0-5.35,5.35v37.47H133.79a5.37,5.37,0,0,0-5.35,5.35v17.84a5.37,5.37,0,0,0,5.35,5.35H189.1a10.67,10.67,0,0,0,10.7-10.7V150A5.37,5.37,0,0,0,194.45,144.64Z"/><path class="81de7122-8d80-4d96-bdcd-ea0b04b5e2ef" d="M112.18,73.63l-26.52.27a4.88,4.88,0,0,0-4.83,4.82L79.8,183a4.66,4.66,0,0,0,4.73,4.73l26.52-.27a4.92,4.92,0,0,0,4.83-4.82l1-104.28A4.66,4.66,0,0,0,112.18,73.63Zm-6.75,36.58-13.75.13L91.93,85l13.75-.14Z"/><path class="81de7122-8d80-4d96-bdcd-ea0b04b5e2ef" d="M96.65,1.13l-4.18,8.5L83.12,11A2.05,2.05,0,0,0,82,14.48l6.78,6.61-1.61,9.32a2.06,2.06,0,0,0,3,2.18l8.35-4.43,8.36,4.39a2,2,0,0,0,3-2.18l-1.61-9.32,6.79-6.6a2.06,2.06,0,0,0-1.15-3.5l-9.35-1.36-4.18-8.5a2,2,0,0,0-3.64,0Z"/><path class="81de7122-8d80-4d96-bdcd-ea0b04b5e2ef" d="M123.09,38.72l-4.24,8.58-9.5,1.41a2.07,2.07,0,0,0-1.14,3.53l6.84,6.68-1.62,9.44a2.08,2.08,0,0,0,3,2.17l8.47-4.45,8.47,4.45a2.09,2.09,0,0,0,3-2.17l-1.63-9.44,6.84-6.68a2.06,2.06,0,0,0-1.14-3.53L131,47.35l-4.24-8.58a2,2,0,0,0-3.69-.05Z"/><path class="81de7122-8d80-4d96-bdcd-ea0b04b5e2ef" d="M72.8,38.72,68.56,47.3l-9.5,1.41a2.07,2.07,0,0,0-1.14,3.53l6.84,6.68-1.63,9.44a2.09,2.09,0,0,0,3,2.17l8.47-4.45,8.47,4.45a2.09,2.09,0,0,0,3-2.17l-1.63-9.44,6.85-6.68a2.07,2.07,0,0,0-1.14-3.53l-9.51-1.36-4.23-8.58a2,2,0,0,0-3.69-.05Z"/></g></g></svg>